<?xml version="1.0" encoding="UTF-8" standalone="no"?>
<svg
   xmlns:dc="http://purl.org/dc/elements/1.1/"
   xmlns:cc="http://creativecommons.org/ns#"
   xmlns:rdf="http://www.w3.org/1999/02/22-rdf-syntax-ns#"
   xmlns:svg="http://www.w3.org/2000/svg"
   xmlns="http://www.w3.org/2000/svg"
   id="svg8"
   version="1.1"
   viewBox="0 0 210 297"
   height="297mm"
   width="210mm">
  <defs
     id="defs2">
    <marker
       style="overflow:visible;"
       id="Arrow2Mend"
       refX="0.0"
       refY="0.0"
       orient="auto">
      <path
         transform="scale(0.6) rotate(180) translate(0,0)"
         d="M 8.7185878,4.0337352 L -2.2072895,0.016013256 L 8.7185884,-4.0017078 C 6.9730900,-1.6296469 6.9831476,1.6157441 8.7185878,4.0337352 z "
         style="fill-rule:evenodd;stroke-width:0.625;stroke-linejoin:round;stroke:#adadad;stroke-opacity:1;fill:#adadad;fill-opacity:1"
         id="path890" />
    </marker>
    <marker
       style="overflow:visible;"
       id="Arrow2Send"
       refX="0.0"
       refY="0.0"
       orient="auto">
      <path
         transform="scale(0.3) rotate(180) translate(-2.3,0)"
         d="M 8.7185878,4.0337352 L -2.2072895,0.016013256 L 8.7185884,-4.0017078 C 6.9730900,-1.6296469 6.9831476,1.6157441 8.7185878,4.0337352 z "
         style="fill-rule:evenodd;stroke-width:0.625;stroke-linejoin:round;stroke:#adadad;stroke-opacity:1;fill:#adadad;fill-opacity:1"
         id="path896" />
    </marker>
    <marker
       style="overflow:visible"
       id="Arrow2Sstart"
       refX="0.0"
       refY="0.0"
       orient="auto">
      <path
         transform="scale(0.3) translate(-2.3,0)"
         d="M 8.7185878,4.0337352 L -2.2072895,0.016013256 L 8.7185884,-4.0017078 C 6.9730900,-1.6296469 6.9831476,1.6157441 8.7185878,4.0337352 z "
         style="fill-rule:evenodd;stroke-width:0.625;stroke-linejoin:round;stroke:#adadad;stroke-opacity:1;fill:#adadad;fill-opacity:1"
         id="path893" />
    </marker>
    <marker
       style="overflow:visible;"
       id="Arrow1Mend"
       refX="0.0"
       refY="0.0"
       orient="auto">
      <path
         transform="scale(0.4) rotate(180) translate(10,0)"
         style="fill-rule:evenodd;stroke:#adadad;stroke-width:1pt;stroke-opacity:1;fill:#adadad;fill-opacity:1"
         d="M 0.0,0.0 L 5.0,-5.0 L -12.5,0.0 L 5.0,5.0 L 0.0,0.0 z "
         id="path872" />
    </marker>
    <marker
       style="overflow:visible;"
       id="Arrow1Lend"
       refX="0.0"
       refY="0.0"
       orient="auto">
      <path
         transform="scale(0.8) rotate(180) translate(12.5,0)"
         style="fill-rule:evenodd;stroke:#adadad;stroke-width:1pt;stroke-opacity:1;fill:#adadad;fill-opacity:1"
         d="M 0.0,0.0 L 5.0,-5.0 L -12.5,0.0 L 5.0,5.0 L 0.0,0.0 z "
         id="path866" />
    </marker>
    <marker
       orient="auto"
       refY="0"
       refX="0"
       id="Arrow2Mend-7"
       style="overflow:visible">
      <path
         id="path890-2"
         style="fill:#adadad;fill-opacity:1;fill-rule:evenodd;stroke:#adadad;stroke-width:0.625;stroke-linejoin:round;stroke-opacity:1"
         d="M 8.7185878,4.0337352 -2.2072895,0.01601326 8.7185884,-4.0017078 c -1.7454984,2.3720609 -1.7354408,5.6174519 -6e-7,8.035443 z"
         transform="scale(-0.6)" />
    </marker>
    <marker
       style="overflow:visible"
       id="Arrow2Mend-7-5"
       refX="0"
       refY="0"
       orient="auto">
      <path
         transform="scale(-0.6)"
         d="M 8.7185878,4.0337352 -2.2072895,0.01601326 8.7185884,-4.0017078 c -1.7454984,2.3720609 -1.7354408,5.6174519 -6e-7,8.035443 z"
         style="fill:#adadad;fill-opacity:1;fill-rule:evenodd;stroke:#adadad;stroke-width:0.625;stroke-linejoin:round;stroke-opacity:1"
         id="path890-2-3" />
    </marker>
    <marker
       orient="auto"
       refY="0"
       refX="0"
       id="Arrow2Mend-7-5-4"
       style="overflow:visible">
      <path
         id="path890-2-3-1"
         style="fill:#adadad;fill-opacity:1;fill-rule:evenodd;stroke:#adadad;stroke-width:0.625;stroke-linejoin:round;stroke-opacity:1"
         d="M 8.7185878,4.0337352 -2.2072895,0.01601326 8.7185884,-4.0017078 c -1.7454984,2.3720609 -1.7354408,5.6174519 -6e-7,8.035443 z"
         transform="scale(-0.6)" />
    </marker>
    <marker
       style="overflow:visible"
       id="Arrow2Mend-7-5-4-4"
       refX="0"
       refY="0"
       orient="auto">
      <path
         transform="scale(-0.6)"
         d="M 8.7185878,4.0337352 -2.2072895,0.01601326 8.7185884,-4.0017078 c -1.7454984,2.3720609 -1.7354408,5.6174519 -6e-7,8.035443 z"
         style="fill:#adadad;fill-opacity:1;fill-rule:evenodd;stroke:#adadad;stroke-width:0.625;stroke-linejoin:round;stroke-opacity:1"
         id="path890-2-3-1-3" />
    </marker>
  </defs>
  <metadata
     id="metadata5">
    <rdf:RDF>
      <cc:Work
         rdf:about="">
        <dc:format>image/svg+xml</dc:format>
        <dc:type
           rdf:resource="http://purl.org/dc/dcmitype/StillImage" />
        <dc:title></dc:title>
      </cc:Work>
    </rdf:RDF>
  </metadata>
  <g
     id="layer1">
    <path
       d="M 40.657871,26.192413 A 15,15 0 0 1 25.80873,41.191655 15,15 0 0 1 10.660906,26.494117 15,15 0 0 1 25.205355,11.199241 15,15 0 0 1 40.645735,25.589129"
       id="path833"
       style="opacity:0.996;fill:none;stroke:#fcba03;stroke-width:1.465;stroke-linecap:square;stroke-miterlimit:4;stroke-dasharray:none;stroke-opacity:1" />
    <rect
       transform="rotate(-45)"
       y="100.93405"
       x="-87.504105"
       height="22.867559"
       width="22.867559"
       id="rect837"
       style="opacity:0.996;fill:none;stroke:#fcba03;stroke-width:1.465;stroke-linecap:square;stroke-miterlimit:4;stroke-dasharray:none;stroke-opacity:1" />
    <path
       style="opacity:0.996;fill:none;stroke:#fcba03;stroke-width:1.47054;stroke-linecap:square;stroke-miterlimit:4;stroke-dasharray:none;stroke-opacity:1"
       id="path833-9"
       d="m 144.1272,26.192413 a 15.0567,15.0567 0 0 1 -14.90527,15.055939 15.0567,15.0567 0 0 1 -15.20509,-14.753095 15.0567,15.0567 0 0 1 14.59943,-15.35269 15.0567,15.0567 0 0 1 15.49874,14.444282" />
    <path
       d="m 130.90261,150.94609 c -0.53787,0.0757 -5.656,-11.85897 -6.13562,-12.11391 -0.47962,-0.25494 -13.23531,2.17872 -13.47348,1.69056 -0.23817,-0.48817 9.53074,-9.04381 9.625,-9.57873 0.0943,-0.53492 -6.16202,-11.91427 -5.77135,-12.29163 0.39068,-0.37736 11.54633,6.26959 12.0842,6.19393 0.53787,-0.0757 9.42697,-9.54214 9.90659,-9.2872 0.47962,0.25494 -2.39472,12.91862 -2.15656,13.40679 0.23817,0.48816 11.98822,6.0169 11.89396,6.55182 -0.0942,0.53492 -13.02635,1.71456 -13.41702,2.09192 -0.39068,0.37736 -2.01785,13.26079 -2.55572,13.33645 z"
       id="path857"
       style="opacity:0.996;fill:none;stroke:#fcba03;stroke-width:1.465;stroke-linecap:square;stroke-miterlimit:4;stroke-dasharray:none;stroke-opacity:1" />
    <path
       id="path859"
       d="M 25.680287,110.11504 V 48.910324"
       style="fill:none;stroke:#adadad;stroke-width:1.465;stroke-linecap:butt;stroke-linejoin:miter;stroke-miterlimit:4;stroke-dasharray:none;stroke-opacity:1;marker-end:url(#Arrow2Mend)" />
    <path
       style="fill:none;stroke:#adadad;stroke-width:1.465;stroke-linecap:butt;stroke-linejoin:miter;stroke-miterlimit:4;stroke-dasharray:none;stroke-opacity:1;marker-end:url(#Arrow2Mend-7)"
       d="M 129.06479,46.332923 V 107.53765"
       id="path859-1" />
    <path
       id="path859-1-4"
       d="M 45.748414,26.206439 H 106.95315"
       style="fill:none;stroke:#adadad;stroke-width:1.465;stroke-linecap:butt;stroke-linejoin:miter;stroke-miterlimit:4;stroke-dasharray:none;stroke-opacity:1;marker-end:url(#Arrow2Mend-7-5)" />
    <path
       style="fill:none;stroke:#adadad;stroke-width:1.46499998;stroke-linecap:butt;stroke-linejoin:miter;stroke-miterlimit:4;stroke-dasharray:4.39499995,1.46499998;stroke-opacity:1;marker-end:url(#Arrow2Mend-7-5-4);stroke-dashoffset:0"
       d="M 46.938701,133.2459 H 108.14344"
       id="path859-1-4-3" />
    <path
       id="path859-1-4-3-9"
       d="M 70.296661,141.05587 86.31342,125.03911"
       style="fill:none;stroke:#adadad;stroke-width:1.465;stroke-linecap:butt;stroke-linejoin:miter;stroke-miterlimit:4;stroke-dasharray:none;stroke-dashoffset:0;stroke-opacity:1" />
    <path
       style="fill:none;stroke:#adadad;stroke-width:1.465;stroke-linecap:butt;stroke-linejoin:miter;stroke-miterlimit:4;stroke-dasharray:none;stroke-dashoffset:0;stroke-opacity:1"
       d="m 70.296661,125.03911 16.01676,16.01676"
       id="path859-1-4-3-9-9" />
  </g>
</svg>
