<?xml version="1.0" encoding="UTF-8" standalone="no"?>
<svg
   xmlns:dc="http://purl.org/dc/elements/1.1/"
   xmlns:cc="http://creativecommons.org/ns#"
   xmlns:rdf="http://www.w3.org/1999/02/22-rdf-syntax-ns#"
   xmlns:svg="http://www.w3.org/2000/svg"
   xmlns="http://www.w3.org/2000/svg"
   xmlns:sodipodi="http://sodipodi.sourceforge.net/DTD/sodipodi-0.dtd"
   xmlns:inkscape="http://www.inkscape.org/namespaces/inkscape"
   width="210mm"
   height="297mm"
   viewBox="0 0 210 297"
   version="1.1"
   id="svg8"
   inkscape:version="1.0 (4035a4fb49, 2020-05-01)"
   sodipodi:docname="state_space.svg">
  <defs
     id="defs2">
    <marker
       inkscape:stockid="Arrow2Mend"
       orient="auto"
       refY="0.0"
       refX="0.0"
       id="Arrow2Mend"
       style="overflow:visible;"
       inkscape:isstock="true">
      <path
         id="path890"
         style="fill-rule:evenodd;stroke-width:0.625;stroke-linejoin:round;stroke:#adadad;stroke-opacity:1;fill:#adadad;fill-opacity:1"
         d="M 8.7185878,4.0337352 L -2.2072895,0.016013256 L 8.7185884,-4.0017078 C 6.9730900,-1.6296469 6.9831476,1.6157441 8.7185878,4.0337352 z "
         transform="scale(0.6) rotate(180) translate(0,0)" />
    </marker>
    <marker
       inkscape:stockid="Arrow2Send"
       orient="auto"
       refY="0.0"
       refX="0.0"
       id="Arrow2Send"
       style="overflow:visible;"
       inkscape:isstock="true">
      <path
         id="path896"
         style="fill-rule:evenodd;stroke-width:0.625;stroke-linejoin:round;stroke:#adadad;stroke-opacity:1;fill:#adadad;fill-opacity:1"
         d="M 8.7185878,4.0337352 L -2.2072895,0.016013256 L 8.7185884,-4.0017078 C 6.9730900,-1.6296469 6.9831476,1.6157441 8.7185878,4.0337352 z "
         transform="scale(0.3) rotate(180) translate(-2.3,0)" />
    </marker>
    <marker
       inkscape:stockid="Arrow2Sstart"
       orient="auto"
       refY="0.0"
       refX="0.0"
       id="Arrow2Sstart"
       style="overflow:visible"
       inkscape:isstock="true">
      <path
         id="path893"
         style="fill-rule:evenodd;stroke-width:0.625;stroke-linejoin:round;stroke:#adadad;stroke-opacity:1;fill:#adadad;fill-opacity:1"
         d="M 8.7185878,4.0337352 L -2.2072895,0.016013256 L 8.7185884,-4.0017078 C 6.9730900,-1.6296469 6.9831476,1.6157441 8.7185878,4.0337352 z "
         transform="scale(0.3) translate(-2.3,0)" />
    </marker>
    <marker
       inkscape:stockid="Arrow1Mend"
       orient="auto"
       refY="0.0"
       refX="0.0"
       id="Arrow1Mend"
       style="overflow:visible;"
       inkscape:isstock="true">
      <path
         id="path872"
         d="M 0.0,0.0 L 5.0,-5.0 L -12.5,0.0 L 5.0,5.0 L 0.0,0.0 z "
         style="fill-rule:evenodd;stroke:#adadad;stroke-width:1pt;stroke-opacity:1;fill:#adadad;fill-opacity:1"
         transform="scale(0.4) rotate(180) translate(10,0)" />
    </marker>
    <marker
       inkscape:stockid="Arrow1Lend"
       orient="auto"
       refY="0.0"
       refX="0.0"
       id="Arrow1Lend"
       style="overflow:visible;"
       inkscape:isstock="true">
      <path
         id="path866"
         d="M 0.0,0.0 L 5.0,-5.0 L -12.5,0.0 L 5.0,5.0 L 0.0,0.0 z "
         style="fill-rule:evenodd;stroke:#adadad;stroke-width:1pt;stroke-opacity:1;fill:#adadad;fill-opacity:1"
         transform="scale(0.8) rotate(180) translate(12.5,0)" />
    </marker>
    <marker
       inkscape:isstock="true"
       style="overflow:visible"
       id="Arrow2Mend-7"
       refX="0"
       refY="0"
       orient="auto"
       inkscape:stockid="Arrow2Mend">
      <path
         transform="scale(-0.6)"
         d="M 8.7185878,4.0337352 -2.2072895,0.01601326 8.7185884,-4.0017078 c -1.7454984,2.3720609 -1.7354408,5.6174519 -6e-7,8.035443 z"
         style="fill:#adadad;fill-opacity:1;fill-rule:evenodd;stroke:#adadad;stroke-width:0.625;stroke-linejoin:round;stroke-opacity:1"
         id="path890-2" />
    </marker>
    <marker
       inkscape:stockid="Arrow2Mend"
       orient="auto"
       refY="0"
       refX="0"
       id="Arrow2Mend-7-5"
       style="overflow:visible"
       inkscape:isstock="true">
      <path
         id="path890-2-3"
         style="fill:#adadad;fill-opacity:1;fill-rule:evenodd;stroke:#adadad;stroke-width:0.625;stroke-linejoin:round;stroke-opacity:1"
         d="M 8.7185878,4.0337352 -2.2072895,0.01601326 8.7185884,-4.0017078 c -1.7454984,2.3720609 -1.7354408,5.6174519 -6e-7,8.035443 z"
         transform="scale(-0.6)" />
    </marker>
    <marker
       inkscape:isstock="true"
       style="overflow:visible"
       id="Arrow2Mend-7-5-4"
       refX="0"
       refY="0"
       orient="auto"
       inkscape:stockid="Arrow2Mend">
      <path
         transform="scale(-0.6)"
         d="M 8.7185878,4.0337352 -2.2072895,0.01601326 8.7185884,-4.0017078 c -1.7454984,2.3720609 -1.7354408,5.6174519 -6e-7,8.035443 z"
         style="fill:#adadad;fill-opacity:1;fill-rule:evenodd;stroke:#adadad;stroke-width:0.625;stroke-linejoin:round;stroke-opacity:1"
         id="path890-2-3-1" />
    </marker>
    <marker
       inkscape:stockid="Arrow2Mend"
       orient="auto"
       refY="0"
       refX="0"
       id="Arrow2Mend-7-5-4-4"
       style="overflow:visible"
       inkscape:isstock="true">
      <path
         id="path890-2-3-1-3"
         style="fill:#adadad;fill-opacity:1;fill-rule:evenodd;stroke:#adadad;stroke-width:0.625;stroke-linejoin:round;stroke-opacity:1"
         d="M 8.7185878,4.0337352 -2.2072895,0.01601326 8.7185884,-4.0017078 c -1.7454984,2.3720609 -1.7354408,5.6174519 -6e-7,8.035443 z"
         transform="scale(-0.6)" />
    </marker>
    <marker
       inkscape:stockid="Arrow2Mend"
       orient="auto"
       refY="0"
       refX="0"
       id="Arrow2Mend-7-5-4-3"
       style="overflow:visible"
       inkscape:isstock="true">
      <path
         id="path890-2-3-1-6"
         style="fill:#adadad;fill-opacity:1;fill-rule:evenodd;stroke:#adadad;stroke-width:0.625;stroke-linejoin:round;stroke-opacity:1"
         d="M 8.7185878,4.0337352 -2.2072895,0.01601326 8.7185884,-4.0017078 c -1.7454984,2.3720609 -1.7354408,5.6174519 -6e-7,8.035443 z"
         transform="scale(-0.6)" />
    </marker>
    <marker
       inkscape:isstock="true"
       style="overflow:visible"
       id="Arrow2Mend-7-5-0"
       refX="0"
       refY="0"
       orient="auto"
       inkscape:stockid="Arrow2Mend">
      <path
         transform="scale(-0.6)"
         d="M 8.7185878,4.0337352 -2.2072895,0.01601326 8.7185884,-4.0017078 c -1.7454984,2.3720609 -1.7354408,5.6174519 -6e-7,8.035443 z"
         style="fill:#adadad;fill-opacity:1;fill-rule:evenodd;stroke:#adadad;stroke-width:0.625;stroke-linejoin:round;stroke-opacity:1"
         id="path890-2-3-5" />
    </marker>
    <marker
       inkscape:isstock="true"
       style="overflow:visible"
       id="Arrow2Mend-7-5-3"
       refX="0"
       refY="0"
       orient="auto"
       inkscape:stockid="Arrow2Mend">
      <path
         transform="scale(-0.6)"
         d="M 8.7185878,4.0337352 -2.2072895,0.01601326 8.7185884,-4.0017078 c -1.7454984,2.3720609 -1.7354408,5.6174519 -6e-7,8.035443 z"
         style="fill:#adadad;fill-opacity:1;fill-rule:evenodd;stroke:#adadad;stroke-width:0.625;stroke-linejoin:round;stroke-opacity:1"
         id="path890-2-3-3" />
    </marker>
    <marker
       inkscape:stockid="Arrow2Mend"
       orient="auto"
       refY="0"
       refX="0"
       id="Arrow2Mend-7-5-3-4"
       style="overflow:visible"
       inkscape:isstock="true">
      <path
         id="path890-2-3-3-6"
         style="fill:#adadad;fill-opacity:1;fill-rule:evenodd;stroke:#adadad;stroke-width:0.625;stroke-linejoin:round;stroke-opacity:1"
         d="M 8.7185878,4.0337352 -2.2072895,0.01601326 8.7185884,-4.0017078 c -1.7454984,2.3720609 -1.7354408,5.6174519 -6e-7,8.035443 z"
         transform="scale(-0.6)" />
    </marker>
  </defs>
  <sodipodi:namedview
     id="base"
     pagecolor="#ffffff"
     bordercolor="#666666"
     borderopacity="1.0"
     inkscape:pageopacity="0.0"
     inkscape:pageshadow="2"
     inkscape:zoom="0.49497475"
     inkscape:cx="-88.215152"
     inkscape:cy="228.06225"
     inkscape:document-units="mm"
     inkscape:current-layer="layer1"
     inkscape:document-rotation="0"
     showgrid="false"
     inkscape:window-width="1920"
     inkscape:window-height="1017"
     inkscape:window-x="-8"
     inkscape:window-y="-8"
     inkscape:window-maximized="1" />
  <metadata
     id="metadata5">
    <rdf:RDF>
      <cc:Work
         rdf:about="">
        <dc:format>image/svg+xml</dc:format>
        <dc:type
           rdf:resource="http://purl.org/dc/dcmitype/StillImage" />
        <dc:title />
      </cc:Work>
    </rdf:RDF>
  </metadata>
  <g
     inkscape:label="Layer 1"
     inkscape:groupmode="layer"
     id="layer1">
    <path
       style="opacity:0.996;fill:none;stroke:#fcba03;stroke-width:1.465;stroke-linecap:square;stroke-miterlimit:4;stroke-dasharray:none;stroke-opacity:1"
       id="path833"
       sodipodi:type="arc"
       sodipodi:cx="25.657871"
       sodipodi:cy="26.192413"
       sodipodi:rx="15"
       sodipodi:ry="15"
       sodipodi:start="0"
       sodipodi:end="6.2429555"
       sodipodi:open="true"
       sodipodi:arc-type="arc"
       d="M 40.657871,26.192413 A 15,15 0 0 1 25.80873,41.191655 15,15 0 0 1 10.660906,26.494117 15,15 0 0 1 25.205355,11.199241 15,15 0 0 1 40.645735,25.589129" />
    <rect
       style="opacity:0.996;fill:none;stroke:#fcba03;stroke-width:1.465;stroke-linecap:square;stroke-miterlimit:4;stroke-dasharray:none;stroke-opacity:1"
       id="rect837"
       width="22.867559"
       height="22.867559"
       x="-87.504105"
       y="100.93405"
       transform="rotate(-45)" />
    <path
       d="M 144.50517,26.192413 A 15.0567,15.0567 0 0 1 129.5999,41.248352 15.0567,15.0567 0 0 1 114.39482,26.495257 15.0567,15.0567 0 0 1 128.99424,11.142567 15.0567,15.0567 0 0 1 144.49299,25.586849"
       sodipodi:arc-type="arc"
       sodipodi:open="true"
       sodipodi:end="6.2429555"
       sodipodi:start="0"
       sodipodi:ry="15.0567"
       sodipodi:rx="15.0567"
       sodipodi:cy="26.192413"
       sodipodi:cx="129.44847"
       sodipodi:type="arc"
       id="path833-9"
       style="opacity:0.996;fill:none;stroke:#fcba03;stroke-width:1.47054;stroke-linecap:square;stroke-miterlimit:4;stroke-dasharray:none;stroke-opacity:1" />
    <path
       sodipodi:type="star"
       style="opacity:0.996;fill:none;stroke:#fcba03;stroke-width:1.465;stroke-linecap:square;stroke-miterlimit:4;stroke-dasharray:none;stroke-opacity:1"
       id="path857"
       sodipodi:sides="5"
       sodipodi:cx="128.64929"
       sodipodi:cy="132.23961"
       sodipodi:r1="18.890636"
       sodipodi:r2="7.4660783"
       sodipodi:arg1="1.4310511"
       sodipodi:arg2="2.0593696"
       inkscape:flatsided="false"
       inkscape:rounded="0.04"
       inkscape:randomized="0"
       d="m 131.28058,150.94609 c -0.53787,0.0757 -5.656,-11.85897 -6.13562,-12.11391 -0.47961,-0.25494 -13.23531,2.17872 -13.47347,1.69056 -0.23817,-0.48817 9.53074,-9.0438 9.625,-9.57873 0.0942,-0.53492 -6.16203,-11.91427 -5.77135,-12.29163 0.39067,-0.37736 11.54633,6.26959 12.0842,6.19393 0.53787,-0.0756 9.42697,-9.54214 9.90659,-9.2872 0.47961,0.25495 -2.39473,12.91862 -2.15656,13.40679 0.23817,0.48816 11.98821,6.0169 11.89396,6.55182 -0.0943,0.53493 -13.02635,1.71456 -13.41703,2.09192 -0.39067,0.37736 -2.01785,13.26079 -2.55572,13.33645 z"
       inkscape:transform-center-x="-1.6472013"
       inkscape:transform-center-y="0.39822917" />
    <path
       style="fill:none;stroke:#adadad;stroke-width:1.465;stroke-linecap:butt;stroke-linejoin:miter;stroke-miterlimit:4;stroke-dasharray:none;stroke-opacity:1;marker-end:url(#Arrow2Mend)"
       d="M 25.680287,110.11504 V 48.910324"
       id="path859" />
    <path
       style="fill:none;stroke:#adadad;stroke-width:1.465;stroke-linecap:butt;stroke-linejoin:miter;stroke-miterlimit:4;stroke-dasharray:none;stroke-opacity:1;marker-end:url(#Arrow2Mend-7-5)"
       d="M 45.748414,26.206439 H 106.95315"
       id="path859-1-4" />
    <path
       id="path859-1-4-3"
       d="M 46.938701,133.2459 H 108.14344"
       style="fill:none;stroke:#adadad;stroke-width:1.46499998;stroke-linecap:butt;stroke-linejoin:miter;stroke-miterlimit:4;stroke-dasharray:4.39499995,1.46499998;stroke-opacity:1;marker-end:url(#Arrow2Mend-7-5-4);stroke-dashoffset:0" />
    <path
       style="fill:none;stroke:#adadad;stroke-width:1.465;stroke-linecap:butt;stroke-linejoin:miter;stroke-miterlimit:4;stroke-dasharray:none;stroke-dashoffset:0;stroke-opacity:1"
       d="M 70.296661,141.05587 86.31342,125.03911"
       id="path859-1-4-3-9" />
    <path
       id="path859-1-4-3-9-9"
       d="m 70.296661,125.03911 16.01676,16.01676"
       style="fill:none;stroke:#adadad;stroke-width:1.465;stroke-linecap:butt;stroke-linejoin:miter;stroke-miterlimit:4;stroke-dasharray:none;stroke-dashoffset:0;stroke-opacity:1" />
    <path
       style="fill:none;stroke:#adadad;stroke-width:1.465;stroke-linecap:butt;stroke-linejoin:miter;stroke-miterlimit:4;stroke-dasharray:4.39499, 1.465;stroke-dashoffset:0;stroke-opacity:1;marker-end:url(#Arrow2Mend-7-5-4-3)"
       d="M 129.44276,47.287229 V 108.49197"
       id="path859-1-4-3-8" />
    <path
       id="path859-1-4-3-9-0"
       d="m 121.44846,70.645189 16.01676,16.01676"
       style="fill:none;stroke:#adadad;stroke-width:1.465;stroke-linecap:butt;stroke-linejoin:miter;stroke-miterlimit:4;stroke-dasharray:none;stroke-dashoffset:0;stroke-opacity:1" />
    <path
       style="fill:none;stroke:#adadad;stroke-width:1.465;stroke-linecap:butt;stroke-linejoin:miter;stroke-miterlimit:4;stroke-dasharray:none;stroke-dashoffset:0;stroke-opacity:1"
       d="m 137.46522,70.645189 -16.01676,16.01676"
       id="path859-1-4-3-9-9-3" />
    <path
       transform="rotate(90)"
       d="m -7.0732918,-77.485069 a 15,15 0 0 1 -14.8491412,14.999241 15,15 0 0 1 -15.147824,-14.697538 15,15 0 0 1 14.544449,-15.294876 15,15 0 0 1 15.4403796,14.389888"
       sodipodi:arc-type="arc"
       sodipodi:open="true"
       sodipodi:end="6.2429555"
       sodipodi:start="0"
       sodipodi:ry="15"
       sodipodi:rx="15"
       sodipodi:cy="-77.485069"
       sodipodi:cx="-22.073292"
       sodipodi:type="arc"
       id="path833-8"
       style="opacity:0.996;fill:none;stroke:#fcba03;stroke-width:1.465;stroke-linecap:square;stroke-miterlimit:4;stroke-dasharray:none;stroke-opacity:1" />
    <path
       transform="rotate(90)"
       style="opacity:0.996;fill:none;stroke:#fcba03;stroke-width:1.47054;stroke-linecap:square;stroke-miterlimit:4;stroke-dasharray:none;stroke-opacity:1"
       id="path833-9-9"
       sodipodi:type="arc"
       sodipodi:cx="81.717323"
       sodipodi:cy="-77.485069"
       sodipodi:rx="15.0567"
       sodipodi:ry="15.0567"
       sodipodi:start="0"
       sodipodi:end="6.2429555"
       sodipodi:open="true"
       sodipodi:arc-type="arc"
       d="m 96.774023,-77.485069 a 15.0567,15.0567 0 0 1 -14.90527,15.055938 15.0567,15.0567 0 0 1 -15.205084,-14.753095 15.0567,15.0567 0 0 1 14.599427,-15.35269 15.0567,15.0567 0 0 1 15.498745,14.444282" />
    <path
       id="path859-1-4-7"
       d="M 77.471049,-1.9827527 V 59.221987"
       style="fill:none;stroke:#adadad;stroke-width:1.465;stroke-linecap:butt;stroke-linejoin:miter;stroke-miterlimit:4;stroke-dasharray:none;stroke-opacity:1;marker-end:url(#Arrow2Mend-7-5-0)" />
    <path
       sodipodi:nodetypes="cc"
       id="path859-1-4-31"
       d="M 39.253427,13.570195 61.350595,-8.5269778"
       style="fill:none;stroke:#adadad;stroke-width:1.465;stroke-linecap:butt;stroke-linejoin:miter;stroke-miterlimit:4;stroke-dasharray:none;stroke-opacity:1;marker-end:url(#Arrow2Mend-7-5-3)" />
    <path
       style="fill:none;stroke:#adadad;stroke-width:1.465;stroke-linecap:butt;stroke-linejoin:miter;stroke-miterlimit:4;stroke-dasharray:none;stroke-opacity:1;marker-end:url(#Arrow2Mend-7-5-3-4)"
       d="M 90.992843,92.597286 113.09002,114.69446"
       id="path859-1-4-31-6"
       sodipodi:nodetypes="cc" />
  </g>
</svg>
