<?xml version="1.0" encoding="UTF-8" standalone="no"?>
<svg
   xmlns:dc="http://purl.org/dc/elements/1.1/"
   xmlns:cc="http://creativecommons.org/ns#"
   xmlns:rdf="http://www.w3.org/1999/02/22-rdf-syntax-ns#"
   xmlns:svg="http://www.w3.org/2000/svg"
   xmlns="http://www.w3.org/2000/svg"
   xmlns:sodipodi="http://sodipodi.sourceforge.net/DTD/sodipodi-0.dtd"
   xmlns:inkscape="http://www.inkscape.org/namespaces/inkscape"
   inkscape:version="1.0 (4035a4fb49, 2020-05-01)"
   sodipodi:docname="why_nobg.svg"
   id="svg35"
   stroke-miterlimit="10"
   stroke-linecap="square"
   stroke="none"
   fill="none"
   viewBox="0.0 0.0 960.0 540.0"
   version="1.1">
  <metadata
     id="metadata41">
    <rdf:RDF>
      <cc:Work
         rdf:about="">
        <dc:format>image/svg+xml</dc:format>
        <dc:type
           rdf:resource="http://purl.org/dc/dcmitype/StillImage" />
      </cc:Work>
    </rdf:RDF>
  </metadata>
  <defs
     id="defs39" />
  <sodipodi:namedview
     inkscape:current-layer="g33"
     inkscape:window-maximized="1"
     inkscape:window-y="-8"
     inkscape:window-x="-8"
     inkscape:cy="270"
     inkscape:cx="480"
     inkscape:zoom="1.1114583"
     showgrid="false"
     id="namedview37"
     inkscape:window-height="1017"
     inkscape:window-width="1920"
     inkscape:pageshadow="2"
     inkscape:pageopacity="0"
     guidetolerance="10"
     gridtolerance="10"
     objecttolerance="10"
     borderopacity="1"
     bordercolor="#666666"
     pagecolor="#ffffff" />
  <clipPath
     id="g2c5d1f1d0d4_1_3.0">
    <path
       id="path2"
       clip-rule="nonzero"
       d="m0 0l960.0 0l0 540.0l-960.0 0l0 -540.0z" />
  </clipPath>
  <g
     id="g33"
     clip-path="url(#g2c5d1f1d0d4_1_3.0)">
    <path
       id="path7"
       fill-rule="evenodd"
       d="m32.72441 46.721786l894.55115 0l0 60.125984l-894.55115 0z"
       fill-opacity="0.0"
       fill="#000000" />
    <path
       id="path9"
       fill-rule="nonzero"
       d="m48.521286 87.97778l-6.390625 -24.046875l3.265625 0l3.65625 15.765625q0.59375 2.46875 1.015625 4.921875q0.921875 -3.859375 1.09375 -4.453125l4.578125 -16.234375l3.828125 0l3.453125 12.171875q1.296875 4.53125 1.859375 8.515625q0.46875 -2.28125 1.203125 -5.234375l3.765625 -15.453125l3.203125 0l-6.59375 24.046875l-3.0625 0l-5.078125 -18.328125q-0.640625 -2.296875 -0.75 -2.8125q-0.375 1.65625 -0.703125 2.8125l-5.109375 18.328125l-3.234375 0zm27.129257 0l0 -24.046875l2.953125 0l0 8.625q2.0625 -2.390625 5.21875 -2.390625q1.921875 0 3.34375 0.765625q1.4375 0.765625 2.046875 2.109375q0.625 1.34375 0.625 3.890625l0 11.046875l-2.953125 0l0 -11.046875q0 -2.203125 -0.96875 -3.203125q-0.953125 -1.015625 -2.703125 -1.015625q-1.3125 0 -2.46875 0.6875q-1.15625 0.671875 -1.65625 1.84375q-0.484375 1.15625 -0.484375 3.203125l0 9.53125l-2.953125 0zm18.542618 6.703125l-0.328125 -2.765625q0.96875 0.265625 1.6875 0.265625q0.984375 0 1.578125 -0.328125q0.59375 -0.328125 0.96875 -0.921875q0.28125 -0.4375 0.90625 -2.203125q0.078125 -0.234375 0.265625 -0.71875l-6.609375 -17.453125l3.171875 0l3.625 10.09375q0.703125 1.921875 1.265625 4.03125q0.515625 -2.03125 1.21875 -3.96875l3.71875 -10.15625l2.953125 0l-6.625 17.71875q-1.0625 2.875 -1.65625 3.953125q-0.78125 1.453125 -1.8125 2.125q-1.015625 0.6875 -2.421875 0.6875q-0.84375 0 -1.90625 -0.359375zm37.567795 -6.703125l0 -2.203125q-1.65625 2.59375 -4.875 2.59375q-2.078125 0 -3.828125 -1.140625q-1.75 -1.15625 -2.71875 -3.203125q-0.953125 -2.0625 -0.953125 -4.734375q0 -2.609375 0.875 -4.734375q0.875 -2.125 2.609375 -3.25q1.734375 -1.140625 3.890625 -1.140625q1.578125 0 2.796875 0.671875q1.234375 0.65625 2.0 1.71875l0 -8.625l2.9375 0l0 24.046875l-2.734375 0zm-9.328125 -8.6875q0 3.34375 1.40625 5.0q1.40625 1.65625 3.328125 1.65625q1.9375 0 3.28125 -1.578125q1.359375 -1.59375 1.359375 -4.84375q0 -3.578125 -1.375 -5.25q-1.375 -1.671875 -3.390625 -1.671875q-1.96875 0 -3.296875 1.609375q-1.3125 1.609375 -1.3125 5.078125zm15.605118 -0.015625q0 -4.84375 2.703125 -7.171875q2.234375 -1.9375 5.46875 -1.9375q3.59375 0 5.875 2.359375q2.28125 2.34375 2.28125 6.5q0 3.359375 -1.015625 5.296875q-1.0 1.921875 -2.9375 2.984375q-1.921875 1.0625 -4.203125 1.0625q-3.65625 0 -5.921875 -2.34375q-2.25 -2.34375 -2.25 -6.75zm3.046875 0q0 3.34375 1.453125 5.015625q1.453125 1.65625 3.671875 1.65625q2.203125 0 3.65625 -1.671875q1.46875 -1.671875 1.46875 -5.109375q0 -3.234375 -1.46875 -4.890625q-1.46875 -1.671875 -3.65625 -1.671875q-2.21875 0 -3.671875 1.65625q-1.453125 1.65625 -1.453125 5.015625zm29.282288 8.703125l-5.328125 -17.421875l3.0625 0l2.765625 10.0625l1.03125 3.734375q0.0625 -0.28125 0.90625 -3.59375l2.765625 -10.203125l3.03125 0l2.609375 10.109375l0.875 3.328125l1.0 -3.359375l2.984375 -10.078125l2.875 0l-5.453125 17.421875l-3.0625 0l-2.765625 -10.4375l-0.671875 -2.96875l-3.53125 13.40625l-3.09375 0zm32.97908 -5.609375l3.046875 0.375q-0.71875 2.671875 -2.671875 4.15625q-1.953125 1.46875 -4.984375 1.46875q-3.828125 0 -6.0625 -2.34375q-2.234375 -2.359375 -2.234375 -6.609375q0 -4.390625 2.25 -6.8125q2.265625 -2.4375 5.875 -2.4375q3.5 0 5.703125 2.375q2.21875 2.375 2.21875 6.6875q0 0.265625 -0.015625 0.796875l-12.984375 0q0.15625 2.875 1.609375 4.40625q1.46875 1.515625 3.65625 1.515625q1.625 0 2.765625 -0.84375q1.15625 -0.859375 1.828125 -2.734375zm-9.703125 -4.78125l9.734375 0q-0.203125 -2.1875 -1.109375 -3.296875q-1.421875 -1.703125 -3.65625 -1.703125q-2.046875 0 -3.4375 1.375q-1.375 1.359375 -1.53125 3.625zm37.157288 4.015625l2.90625 0.375q-0.46875 3.0 -2.4375 4.703125q-1.953125 1.6875 -4.8125 1.6875q-3.578125 0 -5.75 -2.328125q-2.171875 -2.34375 -2.171875 -6.703125q0 -2.828125 0.9375 -4.9375q0.9375 -2.125 2.84375 -3.171875q1.90625 -1.0625 4.15625 -1.0625q2.84375 0 4.640625 1.4375q1.8125 1.4375 2.3125 4.078125l-2.875 0.4375q-0.40625 -1.75 -1.453125 -2.640625q-1.03125 -0.890625 -2.515625 -0.890625q-2.21875 0 -3.625 1.609375q-1.390625 1.59375 -1.390625 5.0625q0 3.5 1.34375 5.09375q1.34375 1.59375 3.515625 1.59375q1.734375 0 2.890625 -1.0625q1.171875 -1.078125 1.484375 -3.28125zm16.796875 4.21875q-1.640625 1.40625 -3.15625 1.984375q-1.515625 0.5625 -3.25 0.5625q-2.875 0 -4.421875 -1.390625q-1.53125 -1.40625 -1.53125 -3.59375q0 -1.28125 0.578125 -2.328125q0.578125 -1.0625 1.515625 -1.703125q0.953125 -0.640625 2.140625 -0.96875q0.859375 -0.234375 2.625 -0.4375q3.5625 -0.4375 5.25 -1.03125q0.03125 -0.59375 0.03125 -0.765625q0 -1.796875 -0.84375 -2.546875q-1.125 -1.0 -3.359375 -1.0q-2.09375 0 -3.09375 0.734375q-0.984375 0.734375 -1.453125 2.578125l-2.890625 -0.390625q0.390625 -1.84375 1.296875 -2.984375q0.90625 -1.140625 2.609375 -1.75q1.703125 -0.625 3.953125 -0.625q2.234375 0 3.625 0.53125q1.390625 0.515625 2.046875 1.3125q0.65625 0.796875 0.921875 2.015625q0.15625 0.75 0.15625 2.71875l0 3.9375q0 4.109375 0.1875 5.203125q0.1875 1.09375 0.734375 2.09375l-3.078125 0q-0.453125 -0.921875 -0.59375 -2.15625zm-0.25 -6.59375q-1.59375 0.65625 -4.8125 1.125q-1.828125 0.265625 -2.578125 0.59375q-0.75 0.328125 -1.171875 0.953125q-0.40625 0.625 -0.40625 1.40625q0 1.171875 0.890625 1.96875q0.90625 0.78125 2.625 0.78125q1.703125 0 3.03125 -0.734375q1.328125 -0.75 1.953125 -2.046875q0.46875 -1.0 0.46875 -2.953125l0 -1.09375zm7.542618 8.75l0 -17.421875l2.6562347 0l0 2.640625q1.015625 -1.859375 1.875 -2.4375q0.859375 -0.59375 1.890625 -0.59375q1.5 0 3.03125 0.953125l-1.015625 2.734375q-1.078125 -0.640625 -2.15625 -0.640625q-0.96875 0 -1.75 0.59375q-0.765625 0.578125 -1.09375 1.609375q-0.484375 1.578125 -0.484375 3.4375l0 9.125l-2.9531097 0zm23.14009 -5.609375l3.046875 0.375q-0.71875 2.671875 -2.671875 4.15625q-1.953125 1.46875 -4.984375 1.46875q-3.828125 0 -6.0625 -2.34375q-2.234375 -2.359375 -2.234375 -6.609375q0 -4.390625 2.25 -6.8125q2.265625 -2.4375 5.875 -2.4375q3.5 0 5.703125 2.375q2.21875 2.375 2.21875 6.6875q0 0.265625 -0.015625 0.796875l-12.984375 0q0.15625 2.875 1.609375 4.40625q1.46875 1.515625 3.65625 1.515625q1.625 0 2.765625 -0.84375q1.15625 -0.859375 1.828125 -2.734375zm-9.703125 -4.78125l9.734375 0q-0.203125 -2.1875 -1.109375 -3.296875q-1.421875 -1.703125 -3.65625 -1.703125q-2.046875 0 -3.4375 1.375q-1.375 1.359375 -1.53125 3.625zm21.995728 4.46875q-0.03125 -0.59375 -0.03125 -0.890625q0 -1.734375 0.5 -3.0q0.359375 -0.953125 1.15625 -1.921875q0.59375 -0.703125 2.125 -2.046875q1.546875 -1.359375 2.0 -2.15625q0.453125 -0.8125 0.453125 -1.765625q0 -1.71875 -1.34375 -3.015625q-1.34375 -1.3125 -3.296875 -1.3125q-1.875 0 -3.140625 1.1875q-1.2655945 1.171875 -1.6562195 3.6875l-3.046875 -0.359375q0.421875 -3.359375 2.4375 -5.140625q2.03125 -1.796875 5.3593445 -1.796875q3.53125 0 5.625 1.921875q2.109375 1.90625 2.109375 4.640625q0 1.5625 -0.75 2.90625q-0.734375 1.328125 -2.875 3.21875q-1.453125 1.28125 -1.890625 1.890625q-0.4375 0.609375 -0.65625 1.40625q-0.21875 0.78125 -0.25 2.546875l-2.828125 0zm-0.1875 5.921875l0 -3.359375l3.359375 0l0 3.359375l-3.359375 0z"
       fill="#ffffff" />
    <path
       id="path11"
       fill-rule="evenodd"
       d="m32.72441 120.99475l894.55115 0l0 358.67715l-894.55115 0z"
       fill-opacity="0.0"
       fill="#000000" />
    <path
       id="path13"
       fill-rule="nonzero"
       d="m58.49785 147.8785l0 -2.125l6.484375 0l0 2.125l-6.484375 0z"
       fill="#adadad" />
    <path
       id="path15"
       fill-rule="nonzero"
       d="m92.958786 138.73787l0 2.453125l-2.265625 0l0 -1.9375q0 -1.578125 0.375 -2.28125q0.5 -0.9375 1.5625 -1.40625l0.515625 0.8125q-0.640625 0.265625 -0.953125 0.8125q-0.296875 0.53125 -0.328125 1.546875l1.09375 0zm3.640625 0l0 2.453125l-2.265625 0l0 -1.9375q0 -1.578125 0.375 -2.28125q0.484375 -0.9375 1.5625 -1.40625l0.515625 0.8125q-0.65625 0.265625 -0.96875 0.8125q-0.296875 0.53125 -0.328125 1.546875l1.109375 0zm2.8828125 14.296875l0 -17.1875l6.4375 0q1.96875 0 3.15625 0.53125q1.1875 0.515625 1.859375 1.609375q0.6875 1.078125 0.6875 2.265625q0 1.09375 -0.609375 2.078125q-0.59375 0.96875 -1.796875 1.5625q1.5625 0.453125 2.390625 1.5625q0.84375 1.09375 0.84375 2.59375q0 1.203125 -0.515625 2.25q-0.5 1.03125 -1.25 1.59375q-0.75 0.5625 -1.890625 0.859375q-1.125 0.28125 -2.765625 0.28125l-6.546875 0zm2.265625 -9.96875l3.71875 0q1.515625 0 2.171875 -0.1875q0.859375 -0.265625 1.296875 -0.859375q0.4375 -0.59375 0.4375 -1.5q0 -0.859375 -0.40625 -1.5q-0.40625 -0.65625 -1.171875 -0.890625q-0.765625 -0.25 -2.609375 -0.25l-3.4375 0l0 5.1875zm0 7.9375l4.28125 0q1.09375 0 1.546875 -0.078125q0.78125 -0.140625 1.3125 -0.46875q0.53125 -0.328125 0.859375 -0.953125q0.34375 -0.625 0.34375 -1.453125q0 -0.953125 -0.5 -1.65625q-0.484375 -0.71875 -1.359375 -1.0q-0.875 -0.296875 -2.515625 -0.296875l-3.96875 0l0 5.90625zm12.7734375 -4.1875q0 -3.46875 1.921875 -5.125q1.609375 -1.390625 3.921875 -1.390625q2.5625 0 4.1875 1.6875q1.625 1.6875 1.625 4.640625q0 2.40625 -0.71875 3.78125q-0.71875 1.375 -2.09375 2.140625q-1.375 0.765625 -3.0 0.765625q-2.625 0 -4.234375 -1.671875q-1.609375 -1.6875 -1.609375 -4.828125zm2.171875 0q0 2.390625 1.03125 3.578125q1.046875 1.1875 2.640625 1.1875q1.5625 0 2.609375 -1.1875q1.046875 -1.203125 1.046875 -3.65625q0 -2.3125 -1.0625 -3.5q-1.046875 -1.1875 -2.59375 -1.1875q-1.59375 0 -2.640625 1.1875q-1.03125 1.1875 -1.03125 3.578125zm16.566406 4.328125l0.3125 1.859375q-0.890625 0.203125 -1.59375 0.203125q-1.15625 0 -1.796875 -0.359375q-0.625 -0.375 -0.890625 -0.96875q-0.25 -0.59375 -0.25 -2.484375l0 -7.171875l-1.546875 0l0 -1.640625l1.546875 0l0 -3.078125l2.09375 -1.265625l0 4.34375l2.125 0l0 1.640625l-2.125 0l0 7.28125q0 0.90625 0.109375 1.171875q0.125 0.25 0.375 0.40625q0.25 0.140625 0.71875 0.140625q0.34375 0 0.921875 -0.078125zm6.6679688 0l0.3125 1.859375q-0.890625 0.203125 -1.59375 0.203125q-1.15625 0 -1.796875 -0.359375q-0.625 -0.375 -0.890625 -0.96875q-0.25 -0.59375 -0.25 -2.484375l0 -7.171875l-1.546875 0l0 -1.640625l1.546875 0l0 -3.078125l2.09375 -1.265625l0 4.34375l2.125 0l0 1.640625l-2.125 0l0 7.28125q0 0.90625 0.109375 1.171875q0.125 0.25 0.375 0.40625q0.25 0.140625 0.71875 0.140625q0.34375 0 0.921875 -0.078125zm2.0117188 1.890625l0 -17.1875l2.109375 0l0 17.1875l-2.109375 0zm13.910156 -4.015625l2.171875 0.28125q-0.515625 1.90625 -1.90625 2.96875q-1.390625 1.046875 -3.5625 1.046875q-2.734375 0 -4.34375 -1.671875q-1.59375 -1.6875 -1.59375 -4.734375q0 -3.140625 1.609375 -4.875q1.625 -1.734375 4.203125 -1.734375q2.5 0 4.078125 1.703125q1.59375 1.703125 1.59375 4.78125q0 0.1875 -0.015625 0.5625l-9.28125 0q0.109375 2.046875 1.15625 3.140625q1.046875 1.09375 2.609375 1.09375q1.15625 0 1.96875 -0.609375q0.828125 -0.609375 1.3125 -1.953125zm-6.9375 -3.40625l6.953125 0q-0.140625 -1.5625 -0.796875 -2.359375q-1.0 -1.21875 -2.609375 -1.21875q-1.453125 0 -2.453125 0.984375q-0.984375 0.96875 -1.09375 2.59375zm11.753906 7.421875l0 -12.453125l1.90625 0l0 1.78125q1.375 -2.0625 3.953125 -2.0625q1.125 0 2.0625 0.40625q0.953125 0.40625 1.421875 1.0625q0.46875 0.65625 0.65625 1.5625q0.125 0.578125 0.125 2.046875l0 7.65625l-2.109375 0l0 -7.578125q0 -1.28125 -0.25 -1.921875q-0.25 -0.640625 -0.875 -1.015625q-0.625 -0.390625 -1.46875 -0.390625q-1.34375 0 -2.328125 0.859375q-0.984375 0.859375 -0.984375 3.25l0 6.796875l-2.109375 0zm21.878906 -4.015625l2.171875 0.28125q-0.515625 1.90625 -1.90625 2.96875q-1.390625 1.046875 -3.5625 1.046875q-2.734375 0 -4.34375 -1.671875q-1.59375 -1.6875 -1.59375 -4.734375q0 -3.140625 1.609375 -4.875q1.625 -1.734375 4.203125 -1.734375q2.5 0 4.078125 1.703125q1.59375 1.703125 1.59375 4.78125q0 0.1875 -0.015625 0.5625l-9.28125 0q0.109375 2.046875 1.15625 3.140625q1.046875 1.09375 2.609375 1.09375q1.15625 0 1.96875 -0.609375q0.828125 -0.609375 1.3125 -1.953125zm-6.9375 -3.40625l6.953125 0q-0.140625 -1.5625 -0.796875 -2.359375q-1.0 -1.21875 -2.609375 -1.21875q-1.453125 0 -2.453125 0.984375q-0.984375 0.96875 -1.09375 2.59375zm19.878906 2.859375l2.078125 0.265625q-0.34375 2.15625 -1.75 3.375q-1.390625 1.203125 -3.4375 1.203125q-2.546875 0 -4.109375 -1.671875q-1.546875 -1.671875 -1.546875 -4.78125q0 -2.015625 0.671875 -3.53125q0.671875 -1.515625 2.03125 -2.265625q1.359375 -0.765625 2.96875 -0.765625q2.03125 0 3.3125 1.03125q1.296875 1.03125 1.65625 2.90625l-2.046875 0.328125q-0.296875 -1.265625 -1.046875 -1.890625q-0.734375 -0.640625 -1.796875 -0.640625q-1.59375 0 -2.59375 1.15625q-0.984375 1.140625 -0.984375 3.609375q0 2.5 0.953125 3.640625q0.96875 1.140625 2.515625 1.140625q1.234375 0 2.0625 -0.765625q0.84375 -0.765625 1.0625 -2.34375zm3.890625 4.5625l0 -17.1875l2.109375 0l0 9.796875l5.0 -5.0625l2.71875 0l-4.75 4.625l5.234375 7.828125l-2.59375 0l-4.125 -6.359375l-1.484375 1.421875l0 4.9375l-2.109375 0zm11.421875 -14.90625l0 -2.453125l2.265625 0l0 1.9375q0 1.5625 -0.359375 2.265625q-0.5 0.9375 -1.578125 1.421875l-0.515625 -0.828125q0.640625 -0.265625 0.953125 -0.8125q0.3125 -0.5625 0.34375 -1.53125l-1.109375 0zm3.640625 0l0 -2.453125l2.265625 0l0 1.9375q0 1.5625 -0.375 2.265625q-0.5 0.9375 -1.5625 1.421875l-0.515625 -0.828125q0.625 -0.265625 0.9375 -0.8125q0.3125 -0.5625 0.34375 -1.53125l-1.09375 0z"
       fill="#adadad" />
    <path
       id="path17"
       fill-rule="nonzero"
       d="m58.49785 180.9985l0 -2.125l6.484375 0l0 2.125l-6.484375 0z"
       fill="#adadad" />
    <path
       id="path19"
       fill-rule="nonzero"
       d="m92.958786 171.85788l0 2.453125l-2.265625 0l0 -1.9375q0 -1.578125 0.375 -2.28125q0.5 -0.9375 1.5625 -1.40625l0.515625 0.8125q-0.640625 0.265625 -0.953125 0.8125q-0.296875 0.53125 -0.328125 1.546875l1.09375 0zm3.640625 0l0 2.453125l-2.265625 0l0 -1.9375q0 -1.578125 0.375 -2.28125q0.484375 -0.9375 1.5625 -1.40625l0.515625 0.8125q-0.65625 0.265625 -0.96875 0.8125q-0.296875 0.53125 -0.328125 1.546875l1.109375 0zm7.3359375 14.296875l0 -15.15625l-5.65625 0l0 -2.03125l13.625 0l0 2.03125l-5.6875 0l0 15.15625l-2.28125 0zm10.9921875 0l-3.796875 -12.453125l2.171875 0l1.984375 7.1875l0.734375 2.671875q0.046875 -0.203125 0.640625 -2.5625l1.984375 -7.296875l2.171875 0l1.859375 7.21875l0.625 2.390625l0.71875 -2.40625l2.125 -7.203125l2.046875 0l-3.890625 12.453125l-2.1875 0l-1.984375 -7.453125l-0.46875 -2.125l-2.53125 9.578125l-2.203125 0zm14.253906 -6.21875q0 -3.46875 1.921875 -5.125q1.609375 -1.390625 3.921875 -1.390625q2.5625 0 4.1875 1.6875q1.625 1.6875 1.625 4.640625q0 2.40625 -0.71875 3.78125q-0.71875 1.375 -2.09375 2.140625q-1.375 0.765625 -3.0 0.765625q-2.625 0 -4.234375 -1.671875q-1.609375 -1.6875 -1.609375 -4.828125zm2.171875 0q0 2.390625 1.03125 3.578125q1.046875 1.1875 2.640625 1.1875q1.5625 0 2.609375 -1.1875q1.046875 -1.203125 1.046875 -3.65625q0 -2.3125 -1.0625 -3.5q-1.046875 -1.1875 -2.59375 -1.1875q-1.59375 0 -2.640625 1.1875q-1.03125 1.1875 -1.03125 3.578125zm20.578125 6.21875l-1.953125 0l0 -17.1875l2.109375 0l0 6.140625q1.328125 -1.6875 3.40625 -1.6875q1.140625 0 2.171875 0.46875q1.03125 0.46875 1.6875 1.3125q0.65625 0.828125 1.03125 2.015625q0.375 1.171875 0.375 2.53125q0 3.1875 -1.578125 4.9375q-1.578125 1.75 -3.796875 1.75q-2.203125 0 -3.453125 -1.84375l0 1.5625zm-0.03125 -6.3125q0 2.234375 0.609375 3.234375q1.0 1.625 2.703125 1.625q1.375 0 2.375 -1.203125q1.015625 -1.203125 1.015625 -3.578125q0 -2.4375 -0.96875 -3.59375q-0.953125 -1.171875 -2.328125 -1.171875q-1.390625 0 -2.40625 1.203125q-1.0 1.203125 -1.0 3.484375zm10.644531 0.09375q0 -3.46875 1.921875 -5.125q1.609375 -1.390625 3.921875 -1.390625q2.5625 0 4.1875 1.6875q1.625 1.6875 1.625 4.640625q0 2.40625 -0.71875 3.78125q-0.71875 1.375 -2.09375 2.140625q-1.375 0.765625 -3.0 0.765625q-2.625 0 -4.234375 -1.671875q-1.609375 -1.6875 -1.609375 -4.828125zm2.171875 0q0 2.390625 1.03125 3.578125q1.046875 1.1875 2.640625 1.1875q1.5625 0 2.609375 -1.1875q1.046875 -1.203125 1.046875 -3.65625q0 -2.3125 -1.0625 -3.5q-1.046875 -1.1875 -2.59375 -1.1875q-1.59375 0 -2.640625 1.1875q-1.03125 1.1875 -1.03125 3.578125zm16.566406 4.328125l0.3125 1.859375q-0.890625 0.203125 -1.59375 0.203125q-1.15625 0 -1.796875 -0.359375q-0.625 -0.375 -0.890625 -0.96875q-0.25 -0.59375 -0.25 -2.484375l0 -7.171875l-1.546875 0l0 -1.640625l1.546875 0l0 -3.078125l2.09375 -1.265625l0 4.34375l2.125 0l0 1.640625l-2.125 0l0 7.28125q0 0.90625 0.109375 1.171875q0.125 0.25 0.375 0.40625q0.25 0.140625 0.71875 0.140625q0.34375 0 0.921875 -0.078125zm6.6679688 0l0.3125 1.859375q-0.890625 0.203125 -1.59375 0.203125q-1.15625 0 -1.796875 -0.359375q-0.625 -0.375 -0.890625 -0.96875q-0.25 -0.59375 -0.25 -2.484375l0 -7.171875l-1.546875 0l0 -1.640625l1.546875 0l0 -3.078125l2.09375 -1.265625l0 4.34375l2.125 0l0 1.640625l-2.125 0l0 7.28125q0 0.90625 0.109375 1.171875q0.125 0.25 0.375 0.40625q0.25 0.140625 0.71875 0.140625q0.34375 0 0.921875 -0.078125zm2.0117188 1.890625l0 -17.1875l2.109375 0l0 17.1875l-2.109375 0zm13.910156 -4.015625l2.171875 0.28125q-0.515625 1.90625 -1.90625 2.96875q-1.390625 1.046875 -3.5625 1.046875q-2.734375 0 -4.34375 -1.671875q-1.59375 -1.6875 -1.59375 -4.734375q0 -3.140625 1.609375 -4.875q1.625 -1.734375 4.203125 -1.734375q2.5 0 4.078125 1.703125q1.59375 1.703125 1.59375 4.78125q0 0.1875 -0.015625 0.5625l-9.28125 0q0.109375 2.046875 1.15625 3.140625q1.046875 1.09375 2.609375 1.09375q1.15625 0 1.96875 -0.609375q0.828125 -0.609375 1.3125 -1.953125zm-6.9375 -3.40625l6.953125 0q-0.140625 -1.5625 -0.796875 -2.359375q-1.0 -1.21875 -2.609375 -1.21875q-1.453125 0 -2.453125 0.984375q-0.984375 0.96875 -1.09375 2.59375zm11.753906 7.421875l0 -12.453125l1.90625 0l0 1.78125q1.375 -2.0625 3.953125 -2.0625q1.125 0 2.0625 0.40625q0.953125 0.40625 1.421875 1.0625q0.46875 0.65625 0.65625 1.5625q0.125 0.578125 0.125 2.046875l0 7.65625l-2.109375 0l0 -7.578125q0 -1.28125 -0.25 -1.921875q-0.25 -0.640625 -0.875 -1.015625q-0.625 -0.390625 -1.46875 -0.390625q-1.34375 0 -2.328125 0.859375q-0.984375 0.859375 -0.984375 3.25l0 6.796875l-2.109375 0zm21.878906 -4.015625l2.171875 0.28125q-0.515625 1.90625 -1.90625 2.96875q-1.390625 1.046875 -3.5625 1.046875q-2.734375 0 -4.34375 -1.671875q-1.59375 -1.6875 -1.59375 -4.734375q0 -3.140625 1.609375 -4.875q1.625 -1.734375 4.203125 -1.734375q2.5 0 4.078125 1.703125q1.59375 1.703125 1.59375 4.78125q0 0.1875 -0.015625 0.5625l-9.28125 0q0.109375 2.046875 1.15625 3.140625q1.046875 1.09375 2.609375 1.09375q1.15625 0 1.96875 -0.609375q0.828125 -0.609375 1.3125 -1.953125zm-6.9375 -3.40625l6.953125 0q-0.140625 -1.5625 -0.796875 -2.359375q-1.0 -1.21875 -2.609375 -1.21875q-1.453125 0 -2.453125 0.984375q-0.984375 0.96875 -1.09375 2.59375zm19.878906 2.859375l2.078125 0.265625q-0.34375 2.15625 -1.75 3.375q-1.390625 1.203125 -3.4375 1.203125q-2.546875 0 -4.109375 -1.671875q-1.546875 -1.671875 -1.546875 -4.78125q0 -2.015625 0.671875 -3.53125q0.671875 -1.515625 2.03125 -2.265625q1.359375 -0.765625 2.96875 -0.765625q2.03125 0 3.3125 1.03125q1.296875 1.03125 1.65625 2.90625l-2.046875 0.328125q-0.296875 -1.265625 -1.046875 -1.890625q-0.734375 -0.640625 -1.796875 -0.640625q-1.59375 0 -2.59375 1.15625q-0.984375 1.140625 -0.984375 3.609375q0 2.5 0.953125 3.640625q0.96875 1.140625 2.515625 1.140625q1.234375 0 2.0625 -0.765625q0.84375 -0.765625 1.0625 -2.34375zm3.890625 4.5625l0 -17.1875l2.109375 0l0 9.796875l5.0 -5.0625l2.7187347 0l-4.7499847 4.625l5.2343597 7.828125l-2.5937347 0l-4.125 -6.359375l-1.484375 1.421875l0 4.9375l-2.109375 0zm11.14061 -3.71875l2.09375 -0.328125q0.171875 1.25 0.96875 1.921875q0.8125 0.671875 2.25 0.671875q1.453125 0 2.15625 -0.59375q0.703125 -0.59375 0.703125 -1.390625q0 -0.71875 -0.625 -1.125q-0.421875 -0.28125 -2.15625 -0.71875q-2.3125 -0.578125 -3.21875 -1.0q-0.890625 -0.4375 -1.359375 -1.1875q-0.453125 -0.765625 -0.453125 -1.671875q0 -0.828125 0.375 -1.53125q0.390625 -0.71875 1.046875 -1.1875q0.484375 -0.359375 1.328125 -0.609375q0.859375 -0.265625 1.828125 -0.265625q1.46875 0 2.578125 0.421875q1.109375 0.421875 1.625 1.15625q0.53125 0.71875 0.734375 1.921875l-2.0625 0.28125q-0.140625 -0.96875 -0.8125 -1.5q-0.671875 -0.546875 -1.90625 -0.546875q-1.453125 0 -2.078125 0.484375q-0.625 0.484375 -0.625 1.125q0 0.40625 0.265625 0.734375q0.25 0.34375 0.8125 0.5625q0.3125 0.125 1.859375 0.546875q2.234375 0.59375 3.109375 0.984375q0.890625 0.375 1.390625 1.109375q0.515625 0.71875 0.515625 1.796875q0 1.046875 -0.625 1.984375q-0.609375 0.9375 -1.765625 1.453125q-1.15625 0.5 -2.625 0.5q-2.421875 0 -3.703125 -1.0q-1.265625 -1.015625 -1.625 -3.0zm12.28125 -11.1875l0 -2.453125l2.265625 0l0 1.9375q0 1.5625 -0.359375 2.265625q-0.5 0.9375 -1.578125 1.421875l-0.515625 -0.828125q0.640625 -0.265625 0.953125 -0.8125q0.3125 -0.5625 0.34375 -1.53125l-1.109375 0zm3.640625 0l0 -2.453125l2.265625 0l0 1.9375q0 1.5625 -0.375 2.265625q-0.5 0.9375 -1.5625 1.421875l-0.515625 -0.828125q0.625 -0.265625 0.9375 -0.8125q0.3125 -0.5625 0.34375 -1.53125l-1.09375 0z"
       fill="#adadad" />
    <path
       id="path21"
       fill-rule="nonzero"
       d="m58.49785 214.1185l0 -2.125l6.484375 0l0 2.125l-6.484375 0z"
       fill="#adadad" />
    <path
       id="path23"
       fill-rule="nonzero"
       d="m92.958786 204.97787l0 2.453125l-2.265625 0l0 -1.9375q0 -1.578125 0.375 -2.28125q0.5 -0.9375 1.5625 -1.40625l0.515625 0.8125q-0.640625 0.265625 -0.953125 0.8125q-0.296875 0.53125 -0.328125 1.546875l1.09375 0zm3.640625 0l0 2.453125l-2.265625 0l0 -1.9375q0 -1.578125 0.375 -2.28125q0.484375 -0.9375 1.5625 -1.40625l0.515625 0.8125q-0.65625 0.265625 -0.96875 0.8125q-0.296875 0.53125 -0.328125 1.546875l1.109375 0zm2.9765625 14.296875l0 -17.1875l5.90625 0q2.015625 0 3.0625 0.25q1.484375 0.34375 2.515625 1.234375q1.359375 1.140625 2.03125 2.9375q0.6875 1.78125 0.6875 4.078125q0 1.953125 -0.46875 3.46875q-0.453125 1.515625 -1.171875 2.515625q-0.703125 0.984375 -1.5625 1.546875q-0.84375 0.5625 -2.046875 0.859375q-1.203125 0.296875 -2.765625 0.296875l-6.1875 0zm2.265625 -2.03125l3.671875 0q1.703125 0 2.65625 -0.3125q0.96875 -0.3125 1.546875 -0.890625q0.8125 -0.8125 1.265625 -2.171875q0.453125 -1.375 0.453125 -3.3125q0 -2.703125 -0.890625 -4.140625q-0.890625 -1.453125 -2.15625 -1.9375q-0.90625 -0.359375 -2.9375 -0.359375l-3.609375 0l0 13.125zm23.316406 -1.984375l2.171875 0.28125q-0.515625 1.90625 -1.90625 2.96875q-1.390625 1.046875 -3.5625 1.046875q-2.734375 0 -4.34375 -1.671875q-1.59375 -1.6875 -1.59375 -4.734375q0 -3.140625 1.609375 -4.875q1.625 -1.734375 4.203125 -1.734375q2.5 0 4.078125 1.703125q1.59375 1.703125 1.59375 4.78125q0 0.1875 -0.015625 0.5625l-9.28125 0q0.109375 2.046875 1.15625 3.140625q1.046875 1.09375 2.609375 1.09375q1.15625 0 1.96875 -0.609375q0.828125 -0.609375 1.3125 -1.953125zm-6.9375 -3.40625l6.953125 0q-0.140625 -1.5625 -0.796875 -2.359375q-1.0 -1.21875 -2.609375 -1.21875q-1.453125 0 -2.453125 0.984375q-0.984375 0.96875 -1.09375 2.59375zm19.878906 5.890625q-1.171875 0.984375 -2.265625 1.40625q-1.078125 0.40625 -2.3125 0.40625q-2.046875 0 -3.15625 -1.0q-1.09375 -1.0 -1.09375 -2.5625q0 -0.921875 0.40625 -1.671875q0.421875 -0.75 1.09375 -1.203125q0.671875 -0.46875 1.515625 -0.703125q0.625 -0.15625 1.875 -0.3125q2.5625 -0.3125 3.765625 -0.734375q0.015625 -0.421875 0.015625 -0.546875q0 -1.28125 -0.609375 -1.8125q-0.796875 -0.71875 -2.390625 -0.71875q-1.5 0 -2.203125 0.53125q-0.703125 0.515625 -1.046875 1.84375l-2.0625 -0.28125q0.28125 -1.328125 0.921875 -2.140625q0.640625 -0.8125 1.859375 -1.25q1.21875 -0.453125 2.828125 -0.453125q1.59375 0 2.59375 0.375q1.0 0.375 1.46875 0.953125q0.46875 0.5625 0.65625 1.4375q0.09375 0.53125 0.09375 1.9375l0 2.8125q0 2.9375 0.140625 3.71875q0.140625 0.78125 0.53125 1.5l-2.203125 0q-0.328125 -0.65625 -0.421875 -1.53125zm-0.171875 -4.71875q-1.15625 0.46875 -3.453125 0.796875q-1.296875 0.1875 -1.84375 0.421875q-0.53125 0.234375 -0.828125 0.6875q-0.28125 0.453125 -0.28125 1.0q0 0.84375 0.625 1.40625q0.640625 0.5625 1.875 0.5625q1.21875 0 2.171875 -0.53125q0.953125 -0.53125 1.390625 -1.453125q0.34375 -0.71875 0.34375 -2.109375l0 -0.78125zm13.472656 6.25l0 -1.578125q-1.1875 1.859375 -3.484375 1.859375q-1.484375 0 -2.734375 -0.8125q-1.25 -0.828125 -1.9375 -2.296875q-0.671875 -1.46875 -0.671875 -3.390625q0 -1.859375 0.609375 -3.375q0.625 -1.515625 1.859375 -2.328125q1.25 -0.8125 2.78125 -0.8125q1.125 0 2.0 0.484375q0.890625 0.46875 1.4375 1.234375l0 -6.171875l2.09375 0l0 17.1875l-1.953125 0zm-6.671875 -6.21875q0 2.390625 1.0 3.578125q1.015625 1.1875 2.390625 1.1875q1.390625 0 2.34375 -1.125q0.96875 -1.140625 0.96875 -3.453125q0 -2.5625 -0.984375 -3.75q-0.984375 -1.203125 -2.421875 -1.203125q-1.40625 0 -2.359375 1.15625q-0.9375 1.140625 -0.9375 3.609375zm27.140625 2.203125l2.171875 0.28125q-0.515625 1.90625 -1.90625 2.96875q-1.390625 1.046875 -3.5625 1.046875q-2.734375 0 -4.34375 -1.671875q-1.59375 -1.6875 -1.59375 -4.734375q0 -3.140625 1.609375 -4.875q1.625 -1.734375 4.203125 -1.734375q2.5 0 4.078125 1.703125q1.59375 1.703125 1.59375 4.78125q0 0.1875 -0.015625 0.5625l-9.28125 0q0.109375 2.046875 1.15625 3.140625q1.046875 1.09375 2.609375 1.09375q1.15625 0 1.96875 -0.609375q0.828125 -0.609375 1.3125 -1.953125zm-6.9375 -3.40625l6.953125 0q-0.140625 -1.5625 -0.796875 -2.359375q-1.0 -1.21875 -2.609375 -1.21875q-1.453125 0 -2.453125 0.984375q-0.984375 0.96875 -1.09375 2.59375zm11.753906 7.421875l0 -12.453125l1.90625 0l0 1.78125q1.375 -2.0625 3.953125 -2.0625q1.125 0 2.0625 0.40625q0.953125 0.40625 1.421875 1.0625q0.46875 0.65625 0.65625 1.5625q0.125 0.578125 0.125 2.046875l0 7.65625l-2.109375 0l0 -7.578125q0 -1.28125 -0.25 -1.921875q-0.25 -0.640625 -0.875 -1.015625q-0.625 -0.390625 -1.46875 -0.390625q-1.34375 0 -2.328125 0.859375q-0.984375 0.859375 -0.984375 3.25l0 6.796875l-2.109375 0zm21.425781 0l0 -1.578125q-1.1875 1.859375 -3.484375 1.859375q-1.484375 0 -2.734375 -0.8125q-1.25 -0.828125 -1.9375 -2.296875q-0.671875 -1.46875 -0.671875 -3.390625q0 -1.859375 0.609375 -3.375q0.625 -1.515625 1.859375 -2.328125q1.25 -0.8125 2.78125 -0.8125q1.125 0 2.0 0.484375q0.890625 0.46875 1.4375 1.234375l0 -6.171875l2.09375 0l0 17.1875l-1.953125 0zm-6.671875 -6.21875q0 2.390625 1.0 3.578125q1.015625 1.1875 2.390625 1.1875q1.390625 0 2.34375 -1.125q0.96875 -1.140625 0.96875 -3.453125q0 -2.5625 -0.984375 -3.75q-0.984375 -1.203125 -2.421875 -1.203125q-1.40625 0 -2.359375 1.15625q-0.9375 1.140625 -0.9375 3.609375zm11.378906 -8.6875l0 -2.453125l2.265625 0l0 1.9375q0 1.5625 -0.359375 2.265625q-0.5 0.9375 -1.578125 1.421875l-0.515625 -0.828125q0.640625 -0.265625 0.953125 -0.8125q0.3125 -0.5625 0.34375 -1.53125l-1.109375 0zm3.640625 0l0 -2.453125l2.265625 0l0 1.9375q0 1.5625 -0.375 2.265625q-0.5 0.9375 -1.5625 1.421875l-0.515625 -0.828125q0.625 -0.265625 0.9375 -0.8125q0.3125 -0.5625 0.34375 -1.53125l-1.09375 0z"
       fill="#adadad" />
    <path
       id="path25"
       fill-rule="nonzero"
       d="m58.49785 247.23851l0 -2.125l6.484375 0l0 2.125l-6.484375 0z"
       fill="#adadad" />
    <path
       id="path27"
       fill-rule="nonzero"
       d="m92.958786 238.09789l0 2.453125l-2.265625 0l0 -1.9375q0 -1.578125 0.375 -2.28125q0.5 -0.9375 1.5625 -1.40625l0.515625 0.8125q-0.640625 0.265625 -0.953125 0.8125q-0.296875 0.53125 -0.328125 1.546875l1.09375 0zm3.640625 0l0 2.453125l-2.265625 0l0 -1.9375q0 -1.578125 0.375 -2.28125q0.484375 -0.9375 1.5625 -1.40625l0.515625 0.8125q-0.65625 0.265625 -0.96875 0.8125q-0.296875 0.53125 -0.328125 1.546875l1.109375 0zm2.2734375 5.921875q0 -4.265625 2.296875 -6.6875q2.296875 -2.421875 5.9375 -2.421875q2.375 0 4.28125 1.140625q1.921875 1.125 2.921875 3.171875q1.0 2.03125 1.0 4.609375q0 2.609375 -1.0625 4.671875q-1.046875 2.0625 -2.984375 3.125q-1.9375 1.0625 -4.171875 1.0625q-2.421875 0 -4.34375 -1.171875q-1.90625 -1.171875 -2.890625 -3.203125q-0.984375 -2.03125 -0.984375 -4.296875zm2.34375 0.046875q0 3.09375 1.671875 4.890625q1.671875 1.78125 4.1875 1.78125q2.578125 0 4.234375 -1.796875q1.65625 -1.8125 1.65625 -5.125q0 -2.09375 -0.71875 -3.65625q-0.703125 -1.578125 -2.078125 -2.4375q-1.359375 -0.859375 -3.046875 -0.859375q-2.421875 0 -4.171875 1.65625q-1.734375 1.65625 -1.734375 5.546875zm16.746094 13.093735l0 -17.218735l1.921875 0l0 1.625q0.6875 -0.953125 1.53125 -1.421875q0.859375 -0.484375 2.078125 -0.484375q1.59375 0 2.8125 0.828125q1.21875 0.8125 1.84375 2.3125q0.625 1.5 0.625 3.28125q0 1.90625 -0.6875 3.4375q-0.6875 1.53125 -2.0 2.34375q-1.296875 0.8125 -2.734375 0.8125q-1.0625 0 -1.90625 -0.4375q-0.828125 -0.453125 -1.375 -1.140625l0 6.0624847l-2.109375 0zm1.921875 -10.92186q0 2.40625 0.96875 3.5625q0.96875 1.140625 2.359375 1.140625q1.40625 0 2.40625 -1.1875q1.0 -1.1875 1.0 -3.6875q0 -2.375 -0.984375 -3.5625q-0.96875 -1.1875 -2.328125 -1.1875q-1.359375 0 -2.390625 1.265625q-1.03125 1.25 -1.03125 3.65625zm19.957031 2.140625l2.171875 0.28125q-0.515625 1.90625 -1.90625 2.96875q-1.390625 1.046875 -3.5625 1.046875q-2.734375 0 -4.34375 -1.671875q-1.59375 -1.6875 -1.59375 -4.734375q0 -3.140625 1.609375 -4.875q1.625 -1.734375 4.203125 -1.734375q2.5 0 4.078125 1.703125q1.59375 1.703125 1.59375 4.78125q0 0.1875 -0.015625 0.5625l-9.28125 0q0.109375 2.046875 1.15625 3.140625q1.046875 1.09375 2.609375 1.09375q1.15625 0 1.96875 -0.609375q0.828125 -0.609375 1.3125 -1.953125zm-6.9375 -3.40625l6.953125 0q-0.140625 -1.5625 -0.796875 -2.359375q-1.0 -1.21875 -2.609375 -1.21875q-1.453125 0 -2.453125 0.984375q-0.984375 0.96875 -1.09375 2.59375zm11.753906 7.421875l0 -12.453125l1.90625 0l0 1.78125q1.375 -2.0625 3.953125 -2.0625q1.125 0 2.0625 0.40625q0.953125 0.40625 1.421875 1.0625q0.46875 0.65625 0.65625 1.5625q0.125 0.578125 0.125 2.046875l0 7.65625l-2.109375 0l0 -7.578125q0 -1.28125 -0.25 -1.921875q-0.25 -0.640625 -0.875 -1.015625q-0.625 -0.390625 -1.46875 -0.390625q-1.34375 0 -2.328125 0.859375q-0.984375 0.859375 -0.984375 3.25l0 6.796875l-2.109375 0zm19.96875 0l0 -17.1875l2.109375 0l0 17.1875l-2.109375 0zm13.910156 -4.015625l2.171875 0.28125q-0.515625 1.90625 -1.90625 2.96875q-1.390625 1.046875 -3.5625 1.046875q-2.734375 0 -4.34375 -1.671875q-1.59375 -1.6875 -1.59375 -4.734375q0 -3.140625 1.609375 -4.875q1.625 -1.734375 4.203125 -1.734375q2.5 0 4.078125 1.703125q1.59375 1.703125 1.59375 4.78125q0 0.1875 -0.015625 0.5625l-9.28125 0q0.109375 2.046875 1.15625 3.140625q1.046875 1.09375 2.609375 1.09375q1.15625 0 1.96875 -0.609375q0.828125 -0.609375 1.3125 -1.953125zm-6.9375 -3.40625l6.953125 0q-0.140625 -1.5625 -0.796875 -2.359375q-1.0 -1.21875 -2.609375 -1.21875q-1.453125 0 -2.453125 0.984375q-0.984375 0.96875 -1.09375 2.59375zm15.222656 7.421875l-4.734375 -12.453125l2.21875 0l2.671875 7.453125q0.4375 1.21875 0.796875 2.515625q0.28125 -0.984375 0.78125 -2.375l2.765625 -7.59375l2.171875 0l-4.703125 12.453125l-1.96875 0zm17.0625 -4.015625l2.171875 0.28125q-0.515625 1.90625 -1.90625 2.96875q-1.390625 1.046875 -3.5625 1.046875q-2.734375 0 -4.34375 -1.671875q-1.59375 -1.6875 -1.59375 -4.734375q0 -3.140625 1.609375 -4.875q1.625 -1.734375 4.203125 -1.734375q2.5 0 4.078125 1.703125q1.59375 1.703125 1.59375 4.78125q0 0.1875 -0.015625 0.5625l-9.28125 0q0.109375 2.046875 1.15625 3.140625q1.046875 1.09375 2.609375 1.09375q1.15625 0 1.96875 -0.609375q0.828125 -0.609375 1.3125 -1.953125zm-6.9375 -3.40625l6.953125 0q-0.140625 -1.5625 -0.796875 -2.359375q-1.0 -1.21875 -2.609375 -1.21875q-1.453125 0 -2.453125 0.984375q-0.984375 0.96875 -1.09375 2.59375zm11.707031 7.421875l0 -17.1875l2.109375 0l0 17.1875l-2.109375 0zm4.8164062 -14.90625l0 -2.453125l2.265625 0l0 1.9375q0 1.5625 -0.359375 2.265625q-0.5 0.9375 -1.578125 1.421875l-0.515625 -0.828125q0.640625 -0.265625 0.953125 -0.8125q0.3125 -0.5625 0.34375 -1.53125l-1.109375 0zm3.640625 0l0 -2.453125l2.265625 0l0 1.9375q0 1.5625 -0.375 2.265625q-0.5 0.9375 -1.5625 1.421875l-0.515625 -0.828125q0.625 -0.265625 0.9375 -0.8125q0.3125 -0.5625 0.34375 -1.53125l-1.09375 0zm15.050781 14.90625l-4.734375 -12.453125l2.21875 0l2.671875 7.453125q0.4375 1.21875 0.796875 2.515625q0.28125 -0.984375 0.78125 -2.375l2.765625 -7.59375l2.171875 0l-4.703125 12.453125l-1.96875 0zm7.6875 -3.71875l2.09375 -0.328125q0.171875 1.25 0.96875 1.921875q0.8125 0.671875 2.25 0.671875q1.453125 0 2.15625 -0.59375q0.703125 -0.59375 0.703125 -1.390625q0 -0.71875 -0.625 -1.125q-0.421875 -0.28125 -2.15625 -0.71875q-2.3125 -0.578125 -3.21875 -1.0q-0.890625 -0.4375 -1.359375 -1.1875q-0.453125 -0.765625 -0.453125 -1.671875q0 -0.828125 0.375 -1.53125q0.390625 -0.71875 1.046875 -1.1875q0.484375 -0.359375 1.328125 -0.609375q0.859375 -0.265625 1.828125 -0.265625q1.46875 0 2.578125 0.421875q1.109375 0.421875 1.625 1.15625q0.53125 0.71875 0.734375 1.921875l-2.0625 0.28125q-0.140625 -0.96875 -0.8125 -1.5q-0.671875 -0.546875 -1.90625 -0.546875q-1.453125 0 -2.078125 0.484375q-0.625 0.484375 -0.625 1.125q0 0.40625 0.265625 0.734375q0.25 0.34375 0.8125 0.5625q0.3125 0.125 1.859375 0.546875q2.234375 0.59375 3.109375 0.984375q0.890625 0.375 1.390625 1.109375q0.515625 0.71875 0.515625 1.796875q0 1.046875 -0.625 1.984375q-0.609375 0.9375 -1.765625 1.453125q-1.15625 0.5 -2.625 0.5q-2.421875 0 -3.703125 -1.0q-1.265625 -1.015625 -1.625 -3.0zm21.167953 -10.578125l0 2.453125l-2.265625 0l0 -1.9375q0 -1.578125 0.375 -2.28125q0.5 -0.9375 1.5625 -1.40625l0.515625 0.8125q-0.640625 0.265625 -0.953125 0.8125q-0.296875 0.53125 -0.328125 1.546875l1.09375 0zm3.640625 0l0 2.453125l-2.265625 0l0 -1.9375q0 -1.578125 0.375 -2.28125q0.484375 -0.9375 1.5625 -1.40625l0.515625 0.8125q-0.65625 0.265625 -0.96875 0.8125q-0.296875 0.53125 -0.328125 1.546875l1.109375 0zm7.3359375 14.296875l0 -15.15625l-5.65625 0l0 -2.03125l13.625 0l0 2.03125l-5.6875 0l0 15.15625l-2.28125 0zm9.144531 -14.75l0 -2.4375l2.109375 0l0 2.4375l-2.109375 0zm0 14.75l0 -12.453125l2.109375 0l0 12.453125l-2.109375 0zm4.9414062 1.03125l2.046875 0.3125q0.125 0.9375 0.71875 1.375q0.78125 0.59375 2.140625 0.59375q1.46875 0 2.265625 -0.59375q0.796875 -0.578125 1.078125 -1.640625q0.15625 -0.640625 0.140625 -2.703125q-1.375 1.625 -3.4375 1.625q-2.5625 0 -3.96875 -1.84375q-1.40625 -1.859375 -1.40625 -4.453125q0 -1.78125 0.640625 -3.28125q0.640625 -1.515625 1.859375 -2.328125q1.234375 -0.828125 2.890625 -0.828125q2.203125 0 3.625 1.78125l0 -1.5l1.953125 0l0 10.765625q0 2.90625 -0.59375 4.109375q-0.59375 1.2187347 -1.875 1.9218597q-1.28125 0.703125 -3.15625 0.703125q-2.234375 0 -3.609375 -1.0q-1.359375 -0.99998474 -1.3125 -3.0156097zm1.734375 -7.484375q0 2.453125 0.96875 3.578125q0.984375 1.125 2.453125 1.125q1.453125 0 2.4375 -1.109375q0.984375 -1.125 0.984375 -3.515625q0 -2.28125 -1.015625 -3.4375q-1.015625 -1.171875 -2.453125 -1.171875q-1.40625 0 -2.390625 1.140625q-0.984375 1.140625 -0.984375 3.390625zm11.988281 6.453125l0 -17.1875l2.109375 0l0 6.171875q1.484375 -1.71875 3.734375 -1.71875q1.375 0 2.390625 0.546875q1.03125 0.546875 1.46875 1.515625q0.4375 0.953125 0.4375 2.78125l0 7.890625l-2.109375 0l0 -7.890625q0 -1.578125 -0.6875 -2.296875q-0.6875 -0.71875 -1.9375 -0.71875q-0.9375 0 -1.765625 0.484375q-0.828125 0.484375 -1.1875 1.3125q-0.34375 0.828125 -0.34375 2.296875l0 6.8125l-2.109375 0zm17.957031 -1.890625l0.3125 1.859375q-0.890625 0.203125 -1.59375 0.203125q-1.15625 0 -1.796875 -0.359375q-0.625 -0.375 -0.890625 -0.96875q-0.25 -0.59375 -0.25 -2.484375l0 -7.171875l-1.546875 0l0 -1.640625l1.546875 0l0 -3.078125l2.09375 -1.265625l0 4.34375l2.125 0l0 1.640625l-2.125 0l0 7.28125q0 0.90625 0.109375 1.171875q0.125 0.25 0.375 0.40625q0.25 0.140625 0.71875 0.140625q0.34375 0 0.921875 -0.078125zm8.6796875 1.890625l0 -17.1875l2.109375 0l0 17.1875l-2.109375 0zm13.910156 -4.015625l2.171875 0.28125q-0.515625 1.90625 -1.90625 2.96875q-1.390625 1.046875 -3.5625 1.046875q-2.734375 0 -4.34375 -1.671875q-1.59375 -1.6875 -1.59375 -4.734375q0 -3.140625 1.609375 -4.875q1.625 -1.734375 4.203125 -1.734375q2.5 0 4.078125 1.703125q1.59375 1.703125 1.59375 4.78125q0 0.1875 -0.015625 0.5625l-9.28125 0q0.109375 2.046875 1.15625 3.140625q1.046875 1.09375 2.609375 1.09375q1.15625 0 1.96875 -0.609375q0.828125 -0.609375 1.3125 -1.953125zm-6.9375 -3.40625l6.953125 0q-0.140625 -1.5625 -0.796875 -2.359375q-1.0 -1.21875 -2.609375 -1.21875q-1.453125 0 -2.453125 0.984375q-0.984375 0.96875 -1.09375 2.59375zm15.222656 7.421875l-4.734375 -12.453125l2.21875 0l2.671875 7.453125q0.4375 1.21875 0.796875 2.515625q0.28125 -0.984375 0.78125 -2.375l2.765625 -7.59375l2.171875 0l-4.703125 12.453125l-1.96875 0zm17.0625 -4.015625l2.171875 0.28125q-0.515625 1.90625 -1.90625 2.96875q-1.390625 1.046875 -3.5625 1.046875q-2.734375 0 -4.34375 -1.671875q-1.59375 -1.6875 -1.59375 -4.734375q0 -3.140625 1.609375 -4.875q1.625 -1.734375 4.203125 -1.734375q2.5 0 4.078125 1.703125q1.59375 1.703125 1.59375 4.78125q0 0.1875 -0.015625 0.5625l-9.28125 0q0.109375 2.046875 1.15625 3.140625q1.046875 1.09375 2.609375 1.09375q1.15625 0 1.96875 -0.609375q0.828125 -0.609375 1.3125 -1.953125zm-6.9375 -3.40625l6.953125 0q-0.140625 -1.5625 -0.796875 -2.359375q-1.0 -1.21875 -2.609375 -1.21875q-1.453125 0 -2.453125 0.984375q-0.984375 0.96875 -1.09375 2.59375zm11.707031 7.421875l0 -17.1875l2.109375 0l0 17.1875l-2.109375 0zm4.8164062 -14.90625l0 -2.453125l2.265625 0l0 1.9375q0 1.5625 -0.359375 2.265625q-0.5 0.9375 -1.578125 1.421875l-0.515625 -0.828125q0.640625 -0.265625 0.953125 -0.8125q0.3125 -0.5625 0.34375 -1.53125l-1.109375 0zm3.640625 0l0 -2.453125l2.265625 0l0 1.9375q0 1.5625 -0.375 2.265625q-0.5 0.9375 -1.5625 1.421875l-0.515625 -0.828125q0.625 -0.265625 0.9375 -0.8125q0.3125 -0.5625 0.34375 -1.53125l-1.09375 0z"
       fill="#adadad" />
    <path
       id="path29"
       fill-rule="nonzero"
       d="m58.49785 280.3585l0 -2.125l6.484375 0l0 2.125l-6.484375 0z"
       fill="#adadad" />
    <path
       id="path31"
       fill-rule="nonzero"
       d="m92.958786 271.21786l0 2.453125l-2.265625 0l0 -1.9375q0 -1.578125 0.375 -2.28125q0.5 -0.9375 1.5625 -1.40625l0.515625 0.8125q-0.640625 0.265625 -0.953125 0.8125q-0.296875 0.53125 -0.328125 1.546875l1.09375 0zm3.640625 0l0 2.453125l-2.265625 0l0 -1.9375q0 -1.578125 0.375 -2.28125q0.484375 -0.9375 1.5625 -1.40625l0.515625 0.8125q-0.65625 0.265625 -0.96875 0.8125q-0.296875 0.53125 -0.328125 1.546875l1.109375 0zm2.9765625 14.296875l0 -17.1875l5.90625 0q2.015625 0 3.0625 0.25q1.484375 0.34375 2.515625 1.234375q1.359375 1.140625 2.03125 2.9375q0.6875 1.78125 0.6875 4.078125q0 1.953125 -0.46875 3.46875q-0.453125 1.515625 -1.171875 2.515625q-0.703125 0.984375 -1.5625 1.546875q-0.84375 0.5625 -2.046875 0.859375q-1.203125 0.296875 -2.765625 0.296875l-6.1875 0zm2.265625 -2.03125l3.671875 0q1.703125 0 2.65625 -0.3125q0.96875 -0.3125 1.546875 -0.890625q0.8125 -0.8125 1.265625 -2.171875q0.453125 -1.375 0.453125 -3.3125q0 -2.703125 -0.890625 -4.140625q-0.890625 -1.453125 -2.15625 -1.9375q-0.90625 -0.359375 -2.9375 -0.359375l-3.609375 0l0 13.125zm23.316406 -1.984375l2.171875 0.28125q-0.515625 1.90625 -1.90625 2.96875q-1.390625 1.046875 -3.5625 1.046875q-2.734375 0 -4.34375 -1.671875q-1.59375 -1.6875 -1.59375 -4.734375q0 -3.140625 1.609375 -4.875q1.625 -1.734375 4.203125 -1.734375q2.5 0 4.078125 1.703125q1.59375 1.703125 1.59375 4.78125q0 0.1875 -0.015625 0.5625l-9.28125 0q0.109375 2.046875 1.15625 3.140625q1.046875 1.09375 2.609375 1.09375q1.15625 0 1.96875 -0.609375q0.828125 -0.609375 1.3125 -1.953125zm-6.9375 -3.40625l6.953125 0q-0.140625 -1.5625 -0.796875 -2.359375q-1.0 -1.21875 -2.609375 -1.21875q-1.453125 0 -2.453125 0.984375q-0.984375 0.96875 -1.09375 2.59375zm20.285156 3.40625l2.171875 0.28125q-0.515625 1.90625 -1.90625 2.96875q-1.390625 1.046875 -3.5625 1.046875q-2.734375 0 -4.34375 -1.671875q-1.59375 -1.6875 -1.59375 -4.734375q0 -3.140625 1.609375 -4.875q1.625 -1.734375 4.203125 -1.734375q2.5 0 4.078125 1.703125q1.59375 1.703125 1.59375 4.78125q0 0.1875 -0.015625 0.5625l-9.28125 0q0.109375 2.046875 1.15625 3.140625q1.046875 1.09375 2.609375 1.09375q1.15625 0 1.96875 -0.609375q0.828125 -0.609375 1.3125 -1.953125zm-6.9375 -3.40625l6.953125 0q-0.140625 -1.5625 -0.796875 -2.359375q-1.0 -1.21875 -2.609375 -1.21875q-1.453125 0 -2.453125 0.984375q-0.984375 0.96875 -1.09375 2.59375zm11.753906 12.1875l0 -17.21875l1.921875 0l0 1.625q0.6875 -0.953125 1.53125 -1.421875q0.859375 -0.484375 2.078125 -0.484375q1.59375 0 2.8125 0.828125q1.21875 0.8125 1.84375 2.3125q0.625 1.5 0.625 3.28125q0 1.90625 -0.6875 3.4375q-0.6875 1.53125 -2.0 2.34375q-1.296875 0.8125 -2.734375 0.8125q-1.0625 0 -1.90625 -0.4375q-0.828125 -0.453125 -1.375 -1.140625l0 6.0625l-2.109375 0zm1.921875 -10.921875q0 2.40625 0.96875 3.5625q0.96875 1.140625 2.359375 1.140625q1.40625 0 2.40625 -1.1875q1.0 -1.1875 1.0 -3.6875q0 -2.375 -0.984375 -3.5625q-0.96875 -1.1875 -2.328125 -1.1875q-1.359375 0 -2.390625 1.265625q-1.03125 1.25 -1.03125 3.65625zm10.863281 -8.75l0 -2.453125l2.265625 0l0 1.9375q0 1.5625 -0.359375 2.265625q-0.5 0.9375 -1.578125 1.421875l-0.515625 -0.828125q0.640625 -0.265625 0.953125 -0.8125q0.3125 -0.5625 0.34375 -1.53125l-1.109375 0zm3.640625 0l0 -2.453125l2.265625 0l0 1.9375q0 1.5625 -0.375 2.265625q-0.5 0.9375 -1.5625 1.421875l-0.515625 -0.828125q0.625 -0.265625 0.9375 -0.8125q0.3125 -0.5625 0.34375 -1.53125l-1.09375 0zm15.050781 14.90625l-4.734375 -12.453125l2.21875 0l2.671875 7.453125q0.4375 1.21875 0.796875 2.515625q0.28125 -0.984375 0.78125 -2.375l2.765625 -7.59375l2.171875 0l-4.703125 12.453125l-1.96875 0zm7.6875 -3.71875l2.09375 -0.328125q0.171875 1.25 0.96875 1.921875q0.8125 0.671875 2.25 0.671875q1.453125 0 2.15625 -0.59375q0.703125 -0.59375 0.703125 -1.390625q0 -0.71875 -0.625 -1.125q-0.421875 -0.28125 -2.15625 -0.71875q-2.3125 -0.578125 -3.21875 -1.0q-0.890625 -0.4375 -1.359375 -1.1875q-0.453125 -0.765625 -0.453125 -1.671875q0 -0.828125 0.375 -1.53125q0.390625 -0.71875 1.046875 -1.1875q0.484375 -0.359375 1.328125 -0.609375q0.859375 -0.265625 1.828125 -0.265625q1.46875 0 2.578125 0.421875q1.109375 0.421875 1.625 1.15625q0.53125 0.71875 0.734375 1.921875l-2.0625 0.28125q-0.140625 -0.96875 -0.8125 -1.5q-0.671875 -0.546875 -1.90625 -0.546875q-1.453125 0 -2.078125 0.484375q-0.625 0.484375 -0.625 1.125q0 0.40625 0.265625 0.734375q0.25 0.34375 0.8125 0.5625q0.3125 0.125 1.859375 0.546875q2.234375 0.59375 3.109375 0.984375q0.890625 0.375 1.390625 1.109375q0.515625 0.71875 0.515625 1.796875q0 1.046875 -0.625 1.984375q-0.609375 0.9375 -1.765625 1.453125q-1.15625 0.5 -2.625 0.5q-2.421875 0 -3.703125 -1.0q-1.265625 -1.015625 -1.625 -3.0zm21.167969 -10.578125l0 2.453125l-2.265625 0l0 -1.9375q0 -1.578125 0.375 -2.28125q0.5 -0.9375 1.5625 -1.40625l0.515625 0.8125q-0.640625 0.265625 -0.953125 0.8125q-0.296875 0.53125 -0.328125 1.546875l1.09375 0zm3.640625 0l0 2.453125l-2.265625 0l0 -1.9375q0 -1.578125 0.375 -2.28125q0.484375 -0.9375 1.5625 -1.40625l0.515625 0.8125q-0.65625 0.265625 -0.96875 0.8125q-0.296875 0.53125 -0.328125 1.546875l1.109375 0zm5.9765625 14.296875l-4.5625 -17.1875l2.328125 0l2.609375 11.265625q0.421875 1.765625 0.734375 3.515625q0.65625 -2.75 0.765625 -3.171875l3.28125 -11.609375l2.734375 0l2.46875 8.703125q0.921875 3.234375 1.328125 6.078125q0.328125 -1.625 0.859375 -3.734375l2.6875 -11.046875l2.296875 0l-4.71875 17.1875l-2.1875 0l-3.625 -13.09375q-0.453125 -1.640625 -0.53125 -2.015625q-0.28125 1.1875 -0.515625 2.015625l-3.640625 13.09375l-2.3125 0zm19.386719 -14.75l0 -2.4375l2.109375 0l0 2.4375l-2.109375 0zm0 14.75l0 -12.453125l2.109375 0l0 12.453125l-2.109375 0zm13.394531 0l0 -1.578125q-1.1875 1.859375 -3.484375 1.859375q-1.484375 0 -2.734375 -0.8125q-1.25 -0.828125 -1.9375 -2.296875q-0.671875 -1.46875 -0.671875 -3.390625q0 -1.859375 0.609375 -3.375q0.625 -1.515625 1.859375 -2.328125q1.25 -0.8125 2.78125 -0.8125q1.125 0 2.0 0.484375q0.890625 0.46875 1.4375 1.234375l0 -6.171875l2.09375 0l0 17.1875l-1.953125 0zm-6.671875 -6.21875q0 2.390625 1.0 3.578125q1.015625 1.1875 2.390625 1.1875q1.390625 0 2.34375 -1.125q0.96875 -1.140625 0.96875 -3.453125q0 -2.5625 -0.984375 -3.75q-0.984375 -1.203125 -2.421875 -1.203125q-1.40625 0 -2.359375 1.15625q-0.9375 1.140625 -0.9375 3.609375zm20.472641 2.203125l2.171875 0.28125q-0.515625 1.90625 -1.90625 2.96875q-1.390625 1.046875 -3.5625 1.046875q-2.7343597 0 -4.3437347 -1.671875q-1.59375 -1.6875 -1.59375 -4.734375q0 -3.140625 1.609375 -4.875q1.625 -1.734375 4.2031097 -1.734375q2.5 0 4.078125 1.703125q1.59375 1.703125 1.59375 4.78125q0 0.1875 -0.015625 0.5625l-9.281235 0q0.109375 2.046875 1.15625 3.140625q1.046875 1.09375 2.6093597 1.09375q1.15625 0 1.96875 -0.609375q0.828125 -0.609375 1.3125 -1.953125zm-6.9374847 -3.40625l6.9531097 0q-0.140625 -1.5625 -0.796875 -2.359375q-1.0 -1.21875 -2.609375 -1.21875q-1.4531097 0 -2.4531097 0.984375q-0.984375 0.96875 -1.09375 2.59375zm11.191391 -7.484375l0 -2.453125l2.265625 0l0 1.9375q0 1.5625 -0.359375 2.265625q-0.5 0.9375 -1.578125 1.421875l-0.515625 -0.828125q0.640625 -0.265625 0.953125 -0.8125q0.3125 -0.5625 0.34375 -1.53125l-1.109375 0zm3.640625 0l0 -2.453125l2.265625 0l0 1.9375q0 1.5625 -0.375 2.265625q-0.5 0.9375 -1.5625 1.421875l-0.515625 -0.828125q0.625 -0.265625 0.9375 -0.8125q0.3125 -0.5625 0.34375 -1.53125l-1.09375 0z"
       fill="#adadad" />
  </g>
</svg>
